<?xml version="1.0" encoding="utf-8"?>
<!-- Generator: Adobe Illustrator 22.0.0, SVG Export Plug-In . SVG Version: 6.00 Build 0)  -->
<svg version="1.1" id="Layer_1" xmlns="http://www.w3.org/2000/svg" xmlns:xlink="http://www.w3.org/1999/xlink" x="0px" y="0px"
	 viewBox="0 0 436.5 179" style="enable-background:new 0 0 436.5 179;" xml:space="preserve">
<style type="text/css">
	.st0{fill:none;stroke:#FFFFFF;stroke-width:4;stroke-miterlimit:10;}
	.st1{fill:none;stroke:#FFFFFF;stroke-width:4;stroke-linecap:round;stroke-linejoin:round;stroke-miterlimit:10;}
</style>
<circle class="st0" cx="23.3" cy="23.2" r="4.1"/>
<circle class="st0" cx="172.8" cy="154.4" r="4.1"/>
<circle class="st0" cx="109.7" cy="91.1" r="4.1"/>
<circle class="st0" cx="168.7" cy="33.2" r="4.1"/>
<circle class="st0" cx="243.4" cy="91.1" r="4.1"/>
<circle class="st0" cx="401.8" cy="158.5" r="4.1"/>
<g>
	<line class="st1" x1="38.6" y1="71" x2="40.9" y2="73.3"/>
	<line class="st1" x1="50.9" y1="71" x2="48.6" y2="73.3"/>
	<line class="st1" x1="38.6" y1="83.3" x2="40.9" y2="81"/>
	<line class="st1" x1="50.9" y1="83.3" x2="48.6" y2="81"/>
</g>
<g>
	<line class="st1" x1="221.3" y1="18" x2="223.6" y2="20.3"/>
	<line class="st1" x1="233.6" y1="18" x2="231.3" y2="20.3"/>
	<line class="st1" x1="221.3" y1="30.3" x2="223.6" y2="28"/>
	<line class="st1" x1="233.6" y1="30.3" x2="231.3" y2="28"/>
</g>
<g>
	<line class="st1" x1="177.8" y1="93.8" x2="180.1" y2="96.1"/>
	<line class="st1" x1="190.1" y1="93.8" x2="187.8" y2="96.1"/>
	<line class="st1" x1="177.8" y1="106.1" x2="180.1" y2="103.8"/>
	<line class="st1" x1="190.1" y1="106.1" x2="187.8" y2="103.8"/>
</g>
<g>
	<line class="st1" x1="94.4" y1="143.2" x2="96.7" y2="145.5"/>
	<line class="st1" x1="106.7" y1="143.2" x2="104.4" y2="145.5"/>
	<line class="st1" x1="94.4" y1="155.5" x2="96.7" y2="153.2"/>
	<line class="st1" x1="106.7" y1="155.5" x2="104.4" y2="153.2"/>
</g>
<g>
	<line class="st1" x1="317.7" y1="20" x2="320" y2="22.3"/>
	<line class="st1" x1="330" y1="20" x2="327.7" y2="22.3"/>
	<line class="st1" x1="317.7" y1="32.3" x2="320" y2="30"/>
	<line class="st1" x1="330" y1="32.3" x2="327.7" y2="30"/>
</g>
<g>
	<line class="st1" x1="317.7" y1="142" x2="320" y2="144.3"/>
	<line class="st1" x1="330" y1="142" x2="327.7" y2="144.3"/>
	<line class="st1" x1="317.7" y1="154.3" x2="320" y2="152"/>
	<line class="st1" x1="330" y1="154.3" x2="327.7" y2="152"/>
</g>
<path class="st1" d="M-126,115.3"/>
<path class="st1" d="M269.1,157.8l-8.1-0.1c-1.5,0-2.5-1.7-1.7-3l4.1-6.9c0.8-1.3,2.7-1.3,3.4,0l3.9,7
	C271.6,156.2,270.6,157.8,269.1,157.8z"/>
<path class="st1" d="M113.7,41.2l-8.1-0.1c-1.5,0-2.5-1.7-1.7-3l4.1-6.9c0.8-1.3,2.7-1.3,3.4,0l3.9,7
	C116.2,39.6,115.2,41.2,113.7,41.2z"/>
<path class="st1" d="M41.5,156.6l-8.1-0.1c-1.5,0-2.5-1.7-1.7-3l4.1-6.9c0.8-1.3,2.7-1.3,3.4,0l3.9,7C44,155,43,156.7,41.5,156.6z"
	/>
<path class="st1" d="M304.6,77.6l-8.1-0.1c-1.5,0-2.5-1.7-1.7-3l4.1-6.9c0.8-1.3,2.7-1.3,3.4,0l3.9,7
	C307.1,76,306.1,77.6,304.6,77.6z"/>
<path class="st1" d="M369.9,40l-8.1-0.1c-1.5,0-2.5-1.7-1.7-3l4.1-6.9c0.8-1.3,2.7-1.3,3.4,0l3.9,7C372.4,38.4,371.4,40,369.9,40z"
	/>
<path class="st1" d="M420.9,120l-8.1-0.1c-1.5,0-2.5-1.7-1.7-3l4.1-6.9c0.8-1.3,2.7-1.3,3.4,0l3.9,7
	C423.4,118.4,422.4,120,420.9,120z"/>
<g>
	<line class="st1" x1="357.2" y1="89.1" x2="359.5" y2="91.4"/>
	<line class="st1" x1="369.5" y1="89.1" x2="367.2" y2="91.4"/>
	<line class="st1" x1="357.2" y1="101.4" x2="359.5" y2="99.1"/>
	<line class="st1" x1="369.5" y1="101.4" x2="367.2" y2="99.1"/>
</g>
<circle class="st0" cx="415.4" cy="36.1" r="4.1"/>
</svg>
