<svg xmlns="http://www.w3.org/2000/svg" viewBox="0 0 1418.17 396.65"><defs><style>.cls-1{fill:#00a4bd;}</style></defs><g id="Layer_2" data-name="Layer 2"><g id="Layer_2-2" data-name="Layer 2"><path class="cls-1" d="M98.2,28.05c3.71-1.18,7.38-2.5,11-3.91,12.91-5,66-14.48,264.18-20.14,140-4,610-4,610-4s307,4,385,56c66.94,44.62,47,105,47,105s-6,32-40,73,7,74-10,105-73,56-235,53-521.72,8.86-716,3c-199-6-241,.65-309-18.18S37.39,312,48.39,272c9.68-35.19-44-66-48-118C-6.23,67.89,73.46,35.88,98.2,28.05Z"/></g></g></svg>