<?xml version="1.0" encoding="utf-8"?>
<!-- Generator: Adobe Illustrator 22.0.0, SVG Export Plug-In . SVG Version: 6.00 Build 0)  -->
<svg version="1.1" id="Layer_1" xmlns="http://www.w3.org/2000/svg" xmlns:xlink="http://www.w3.org/1999/xlink" x="0px" y="0px"
	 viewBox="0 0 120 120" style="enable-background:new 0 0 120 120;" xml:space="preserve">
<style type="text/css">
	.st0{fill-rule:evenodd;clip-rule:evenodd;fill:#FFFFFF;}
</style>
<path class="st0" d="M60,2.1C27.2,2.1,0.6,28.7,0.6,61.5c0,26.2,17,48.5,40.6,56.4c3,0.5,4.1-1.3,4.1-2.9c0-1.4-0.1-5.1-0.1-10.1
	c-16.5,3.6-20-8-20-8c-2.7-6.9-6.6-8.7-6.6-8.7c-5.4-3.7,0.4-3.6,0.4-3.6c6,0.4,9.1,6.1,9.1,6.1c5.3,9.1,13.9,6.5,17.3,4.9
	c0.5-3.8,2.1-6.5,3.8-7.9C36,86.2,22.1,81.1,22.1,58.4c0-6.5,2.3-11.8,6.1-15.9c-0.6-1.5-2.6-7.5,0.6-15.7c0,0,5-1.6,16.3,6.1
	c4.7-1.3,9.8-2,14.9-2c5,0,10.1,0.7,14.9,2c11.3-7.7,16.3-6.1,16.3-6.1c3.2,8.2,1.2,14.2,0.6,15.7c3.8,4.2,6.1,9.5,6.1,15.9
	c0,22.8-13.9,27.8-27.1,29.3c2.1,1.8,4,5.5,4,11c0,7.9-0.1,14.3-0.1,16.3c0,1.6,1.1,3.4,4.1,2.9c23.6-7.9,40.6-30.1,40.6-56.3
	C119.4,28.7,92.8,2.1,60,2.1z"/>
</svg>
