<?xml version="1.0" encoding="utf-8"?>
<!-- Generator: Adobe Illustrator 25.0.1, SVG Export Plug-In . SVG Version: 6.00 Build 0)  -->
<svg version="1.1" id="Layer_1" shape-rendering="geometricPrecision"
	 xmlns="http://www.w3.org/2000/svg" xmlns:xlink="http://www.w3.org/1999/xlink" x="0px" y="0px" viewBox="0 0 8035.5 3235.8"
	 style="enable-background:new 0 0 8035.5 3235.8;" xml:space="preserve">
<style type="text/css">
	.st0{fill:none;stroke:#111111;stroke-width:38;stroke-miterlimit:10;}
	.st1{fill:#111111;stroke:#111111;stroke-width:38;stroke-miterlimit:10;}
</style>
<g>
	<g>
		<path class="st0" d="M8386.3,251.3c-134.3,0-134.3-92-268.6-92s-134.3,92-268.6,92c-134.3,0-134.3-92-268.6-92s-134.3,92-268.6,92
			c-134.3,0-134.3-92-268.6-92s-134.3,92-268.6,92c-134.3,0-134.3-92-268.6-92s-134.3,92-268.6,92s-134.3-92-268.6-92
			c-134.3,0-134.3,92-268.6,92s-134.3-92-268.6-92c-134.3,0-134.3,92-268.6,92c-134.3,0-134.3-92-268.7-92
			c-134.3,0-134.3,92-268.6,92s-134.3-92-268.6-92c-134.3,0-134.3,92-268.6,92c-134.3,0-134.3-92-268.7-92s-134.3,92-268.6,92
			c-134.3,0-134.3-92-268.7-92c-134.4,0-134.3,92-268.6,92c-134.3,0-134.3-92-268.7-92c-134.3,0-134.3,92-268.6,92
			c-134.3,0-134.3-92-268.7-92c-134.3,0-134.3,92-268.6,92c-134.3,0-134.3-92-268.7-92c-134.3,0-134.3,92-268.6,92
			c-134.3,0-134.3-92-268.7-92s-134.3,92-268.6,92c-134.3,0-134.3-92-268.7-92c-134.3,0-134.3,92-268.6,92
			c-134.3,0-134.3-92-268.7-92c-134.3,0-134.3,92-268.7,92s-134.3-92-268.7-92"/>
	</g>
	<rect x="-400.5" y="251.9" class="st1" width="8680.5" height="3072.7"/>
	<path class="st1" d="M7668.6,723h-165.7c-53.8,0-97.4-73.4-97.4-164V352.5c0-90.6,43.6-164,97.4-164h165.7
		c53.8,0,97.4,73.4,97.4,164V559C7766,649.6,7722.3,723,7668.6,723z"/>
	<path class="st1" d="M8190.8,726H8025c-53.8,0-97.4-73.4-97.4-164V355.5c0-90.6,43.6-164,97.4-164h165.7c53.8,0,97.4,73.4,97.4,164
		V562C8288.2,652.6,8244.5,726,8190.8,726z"/>
	<path class="st1" d="M6601.7,731h-165.7c-53.8,0-97.4-73.4-97.4-164V360.5c0-90.6,43.6-164,97.4-164h165.7
		c53.8,0,97.4,73.4,97.4,164V567C6699.1,657.6,6655.4,731,6601.7,731z"/>
	<path class="st1" d="M7123.2,724h-165.7c-53.8,0-97.4-73.4-97.4-164V353.5c0-90.6,43.6-164,97.4-164h165.7
		c53.8,0,97.4,73.4,97.4,164V560C7220.7,650.6,7177,724,7123.2,724z"/>
	<path class="st1" d="M5518.1,727h-165.7c-53.8,0-97.4-73.4-97.4-164V356.5c0-90.6,43.6-164,97.4-164h165.7
		c53.8,0,97.4,73.4,97.4,164V563C5615.5,653.6,5571.9,727,5518.1,727z"/>
	<path class="st1" d="M6056.3,725h-165.7c-53.8,0-97.4-73.4-97.4-164V354.5c0-90.6,43.6-164,97.4-164h165.7
		c53.8,0,97.4,73.4,97.4,164V561C6153.7,651.6,6110.1,725,6056.3,725z"/>
	<path class="st1" d="M4445.8,726h-165.7c-53.8,0-97.4-73.4-97.4-164V355.5c0-90.6,43.6-164,97.4-164h165.7
		c53.8,0,97.4,73.4,97.4,164V562C4543.3,652.6,4499.6,726,4445.8,726z"/>
	<path class="st1" d="M4967.4,728h-165.7c-53.8,0-97.4-73.4-97.4-164V357.5c0-90.6,43.6-164,97.4-164h165.7
		c53.8,0,97.4,73.4,97.4,164V564C5064.8,654.6,5021.2,728,4967.4,728z"/>
	<path class="st1" d="M3905.8,727h-165.7c-53.8,0-97.4-73.4-97.4-164V356.5c0-90.6,43.6-164,97.4-164h165.7
		c53.8,0,97.4,73.4,97.4,164V563C4003.3,653.6,3959.6,727,3905.8,727z"/>
	<path class="st1" d="M2827,728h-165.7c-53.8,0-97.4-73.4-97.4-164V357.5c0-90.6,43.6-164,97.4-164H2827c53.8,0,97.4,73.4,97.4,164
		V564C2924.5,654.6,2880.8,728,2827,728z"/>
	<path class="st1" d="M3360.5,731h-165.7c-53.8,0-97.4-73.4-97.4-164V360.5c0-90.6,43.6-164,97.4-164h165.7
		c53.8,0,97.4,73.4,97.4,164V567C3457.9,657.6,3414.3,731,3360.5,731z"/>
	<path class="st1" d="M1750,722.5h-165.7c-53.8,0-97.4-73.4-97.4-164V352c0-90.6,43.6-164,97.4-164H1750c53.8,0,97.4,73.4,97.4,164
		v206.5C1847.5,649.1,1803.8,722.5,1750,722.5z"/>
	<path class="st1" d="M1210.5,726h-165.7c-53.8,0-97.4-73.4-97.4-164V355.5c0-90.6,43.6-164,97.4-164h165.7
		c53.8,0,97.4,73.4,97.4,164V562C1308,652.6,1264.3,726,1210.5,726z"/>
	<path class="st1" d="M674,727H508.2c-53.8,0-97.4-73.4-97.4-164V356.5c0-90.6,43.6-164,97.4-164H674c53.8,0,97.4,73.4,97.4,164V563
		C771.4,653.6,727.7,727,674,727z"/>
	<path class="st1" d="M126.5,727H-39.3c-53.8,0-97.4-73.4-97.4-164V356.5c0-90.6,43.6-164,97.4-164h165.7c53.8,0,97.4,73.4,97.4,164
		V563C223.9,653.6,180.2,727,126.5,727z"/>
	<path class="st1" d="M2290,730h-165.7c-53.8,0-97.4-73.4-97.4-164V359.5c0-90.6,43.6-164,97.4-164H2290c53.8,0,97.4,73.4,97.4,164
		V566C2387.4,656.6,2343.8,730,2290,730z"/>
</g>
</svg>
