<?xml version="1.0" encoding="utf-8"?>
<!-- Generator: Adobe Illustrator 25.0.1, SVG Export Plug-In . SVG Version: 6.00 Build 0)  -->
<svg version="1.1" id="Layer_1" xmlns="http://www.w3.org/2000/svg" xmlns:xlink="http://www.w3.org/1999/xlink" x="0px" y="0px"
	 viewBox="0 0 2270 8192" style="enable-background:new 0 0 2270 8192;" xml:space="preserve">
<style type="text/css">
	.st0{fill:none;stroke:#A8E0FF;stroke-width:22.574;stroke-miterlimit:5.9405;}
	.st1{fill:#A8E0FF;stroke:#A8E0FF;stroke-width:22.574;stroke-miterlimit:5.9405;}
</style>
<g>
	<g>
		<path class="st0" d="M640.5-150.6c0,134.3-54.7,134.3-54.7,268.6s54.7,134.3,54.7,268.6S585.9,521,585.9,655.3
			s54.7,134.3,54.7,268.6s-54.7,134.3-54.7,268.6s54.7,134.3,54.7,268.6s-54.7,134.3-54.7,268.6c0,134.3,54.7,134.3,54.7,268.6
			s-54.7,134.3-54.7,268.6c0,134.3,54.7,134.3,54.7,268.6c0,134.3-54.7,134.3-54.7,268.6s54.7,134.3,54.7,268.6
			c0,134.3-54.7,134.3-54.7,268.7c0,134.3,54.7,134.3,54.7,268.6c0,134.3-54.7,134.3-54.7,268.6c0,134.3,54.7,134.3,54.7,268.6
			c0,134.3-54.7,134.3-54.7,268.7c0,134.4,54.7,134.3,54.7,268.6c0,134.3-54.7,134.3-54.7,268.7c0,134.4,54.7,134.3,54.7,268.6
			c0,134.3-54.7,134.3-54.7,268.7c0,134.3,54.7,134.3,54.7,268.6c0,134.3-54.7,134.3-54.7,268.7c0,134.3,54.7,134.3,54.7,268.6
			c0,134.3-54.7,134.3-54.7,268.7c0,134.3,54.7,134.3,54.7,268.6c0,134.3-54.7,134.3-54.7,268.7s54.7,134.3,54.7,268.6
			c0,134.3-54.7,134.3-54.7,268.7c0,134.3,54.7,134.3,54.7,268.6c0,134.3-54.7,134.3-54.7,268.7c0,134.3,54.7,134.3,54.7,268.7
			s-54.7,134.3-54.7,268.7"/>
	</g>
	<rect x="640.9" y="-44.2" class="st1" width="1226.2" height="8680.5"/>
	<path class="st1" d="M920.7,567.1v165.7c0,53.8-43.6,97.4-97.4,97.4H700.6c-53.8,0-97.4-43.6-97.4-97.4V567.1
		c0-53.8,43.6-97.4,97.4-97.4h122.7C877.1,469.7,920.7,513.4,920.7,567.1z"/>
	<path class="st1" d="M922.5,45v165.7c0,53.8-43.6,97.4-97.4,97.4H702.4c-53.8,0-97.4-43.6-97.4-97.4V45c0-53.8,43.6-97.4,97.4-97.4
		h122.7C878.9-52.5,922.5-8.8,922.5,45z"/>
	<path class="st1" d="M925.5,1634.1v165.7c0,53.8-43.6,97.4-97.4,97.4H705.4c-53.8,0-97.4-43.6-97.4-97.4v-165.7
		c0-53.8,43.6-97.4,97.4-97.4h122.7C881.9,1536.6,925.5,1580.3,925.5,1634.1z"/>
	<path class="st1" d="M921.3,1112.5v165.7c0,53.8-43.6,97.4-97.4,97.4H701.2c-53.8,0-97.4-43.6-97.4-97.4v-165.7
		c0-53.8,43.6-97.4,97.4-97.4h122.7C877.7,1015.1,921.3,1058.7,921.3,1112.5z"/>
	<path class="st1" d="M923.1,2717.6v165.7c0,53.8-43.6,97.4-97.4,97.4H703c-53.8,0-97.4-43.6-97.4-97.4v-165.7
		c0-53.8,43.6-97.4,97.4-97.4h122.7C879.5,2620.2,923.1,2663.9,923.1,2717.6z"/>
	<path class="st1" d="M921.9,2179.4v165.7c0,53.8-43.6,97.4-97.4,97.4H701.8c-53.8,0-97.4-43.6-97.4-97.4v-165.7
		c0-53.8,43.6-97.4,97.4-97.4h122.7C878.3,2082,921.9,2125.6,921.9,2179.4z"/>
	<path class="st1" d="M922.5,3789.9v165.7c0,53.8-43.6,97.4-97.4,97.4H702.4c-53.8,0-97.4-43.6-97.4-97.4v-165.7
		c0-53.8,43.6-97.4,97.4-97.4h122.7C878.9,3692.5,922.5,3736.1,922.5,3789.9z"/>
	<path class="st1" d="M923.7,3268.3V3434c0,53.8-43.6,97.4-97.4,97.4H703.6c-53.8,0-97.4-43.6-97.4-97.4v-165.7
		c0-53.8,43.6-97.4,97.4-97.4h122.7C880.1,3170.9,923.7,3214.5,923.7,3268.3z"/>
	<path class="st1" d="M923.1,4329.9v165.7c0,53.8-43.6,97.4-97.4,97.4H703c-53.8,0-97.4-43.6-97.4-97.4v-165.7
		c0-53.8,43.6-97.4,97.4-97.4h122.7C879.5,4232.5,923.1,4276.1,923.1,4329.9z"/>
	<path class="st1" d="M923.7,5408.7v165.7c0,53.8-43.6,97.4-97.4,97.4H703.6c-53.8,0-97.4-43.6-97.4-97.4v-165.7
		c0-53.8,43.6-97.4,97.4-97.4h122.7C880.1,5311.3,923.7,5354.9,923.7,5408.7z"/>
	<path class="st1" d="M925.5,4875.2V5041c0,53.8-43.6,97.4-97.4,97.4H705.4c-53.8,0-97.4-43.6-97.4-97.4v-165.7
		c0-53.8,43.6-97.4,97.4-97.4h122.7C881.9,4777.8,925.5,4821.5,925.5,4875.2z"/>
	<path class="st1" d="M923.1,6485.7v165.7c0,53.8-43.6,97.4-97.4,97.4H703c-53.8,0-97.4-43.6-97.4-97.4v-165.7
		c0-53.8,43.6-97.4,97.4-97.4h122.7C879.5,6388.3,923.1,6431.9,923.1,6485.7z"/>
	<path class="st1" d="M925.5,7035.2v165.7c0,53.8-43.6,97.4-97.4,97.4H705.4c-53.8,0-97.4-43.6-97.4-97.4v-165.7
		c0-53.8,43.6-97.4,97.4-97.4h122.7C881.9,6937.8,925.5,6981.4,925.5,7035.2z"/>
	<path class="st1" d="M926.1,7549.1v165.7c0,53.8-43.6,97.4-97.4,97.4H706c-53.8,0-97.4-43.6-97.4-97.4v-165.7
		c0-53.8,43.6-97.4,97.4-97.4h122.7C882.5,7451.6,926.1,7495.3,926.1,7549.1z"/>
	<path class="st1" d="M926.7,8109.2V8275c0,53.8-43.6,97.4-97.4,97.4H706.6c-53.8,0-97.4-43.6-97.4-97.4v-165.7
		c0-53.8,43.6-97.4,97.4-97.4h122.7C883.1,8011.8,926.7,8055.5,926.7,8109.2z"/>
	<path class="st1" d="M924.9,5945.7v165.7c0,53.8-43.6,97.4-97.4,97.4H704.8c-53.8,0-97.4-43.6-97.4-97.4v-165.7
		c0-53.8,43.6-97.4,97.4-97.4h122.7C881.3,5848.3,924.9,5891.9,924.9,5945.7z"/>
</g>
</svg>
