<?xml version="1.0" encoding="utf-8"?>
<!-- Generator: Adobe Illustrator 25.0.1, SVG Export Plug-In . SVG Version: 6.00 Build 0)  -->
<svg version="1.1" id="Layer_1" shape-rendering="geometricPrecision"
	 xmlns="http://www.w3.org/2000/svg" xmlns:xlink="http://www.w3.org/1999/xlink" x="0px" y="0px" viewBox="0 0 2270 8192"
	 style="enable-background:new 0 0 2270 8192;" xml:space="preserve">
<style type="text/css">
	.st0{fill:none;stroke:#111111;stroke-width:38;stroke-miterlimit:10;}
	.st1{fill:#111111;stroke:#111111;stroke-width:38;stroke-miterlimit:10;}
</style>
<g>
	<g>
		<path class="st0" d="M119.1-161.9c0,134.3-92,134.3-92,268.6s92,134.3,92,268.6s-92,134.3-92,268.6s92,134.3,92,268.6
			s-92,134.3-92,268.6s92,134.3,92,268.6c0,134.3-92,134.3-92,268.6s92,134.3,92,268.6s-92,134.3-92,268.6
			c0,134.3,92,134.3,92,268.6s-92,134.3-92,268.6c0,134.3,92,134.3,92,268.6c0,134.3-92,134.3-92,268.7c0,134.3,92,134.3,92,268.6
			c0,134.3-92,134.3-92,268.6s92,134.3,92,268.6c0,134.3-92,134.3-92,268.7c0,134.4,92,134.3,92,268.6c0,134.3-92,134.3-92,268.7
			c0,134.4,92,134.3,92,268.6c0,134.3-92,134.3-92,268.7c0,134.3,92,134.3,92,268.6c0,134.3-92,134.3-92,268.7
			c0,134.3,92,134.3,92,268.6c0,134.3-92,134.3-92,268.7c0,134.3,92,134.3,92,268.6s-92,134.3-92,268.7s92,134.3,92,268.6
			c0,134.3-92,134.3-92,268.7c0,134.3,92,134.3,92,268.6c0,134.3-92,134.3-92,268.7c0,134.3,92,134.3,92,268.7s-92,134.3-92,268.7"
			/>
	</g>
	<rect x="119.7" y="-55.5" class="st1" width="3072.7" height="8680.5"/>
	<path class="st1" d="M590.8,555.8v165.7c0,53.8-73.4,97.4-164,97.4H220.3c-90.6,0-164-43.6-164-97.4V555.8
		c0-53.8,73.4-97.4,164-97.4h206.5C517.4,458.4,590.8,502.1,590.8,555.8z"/>
	<path class="st1" d="M593.8,33.7v165.7c0,53.8-73.4,97.4-164,97.4H223.3c-90.6,0-164-43.6-164-97.4V33.7c0-53.8,73.4-97.4,164-97.4
		h206.5C520.4-63.7,593.8-20.1,593.8,33.7z"/>
	<path class="st1" d="M598.8,1622.8v165.7c0,53.8-73.4,97.4-164,97.4H228.3c-90.6,0-164-43.6-164-97.4v-165.7
		c0-53.8,73.4-97.4,164-97.4h206.5C525.4,1525.3,598.8,1569,598.8,1622.8z"/>
	<path class="st1" d="M591.8,1101.2v165.7c0,53.8-73.4,97.4-164,97.4H221.3c-90.6,0-164-43.6-164-97.4v-165.7
		c0-53.8,73.4-97.4,164-97.4h206.5C518.4,1003.8,591.8,1047.4,591.8,1101.2z"/>
	<path class="st1" d="M594.8,2706.3v165.7c0,53.8-73.4,97.4-164,97.4H224.3c-90.6,0-164-43.6-164-97.4v-165.7
		c0-53.8,73.4-97.4,164-97.4h206.5C521.4,2608.9,594.8,2652.6,594.8,2706.3z"/>
	<path class="st1" d="M592.8,2168.1v165.7c0,53.8-73.4,97.4-164,97.4H222.3c-90.6,0-164-43.6-164-97.4v-165.7
		c0-53.8,73.4-97.4,164-97.4h206.5C519.4,2070.7,592.8,2114.3,592.8,2168.1z"/>
	<path class="st1" d="M593.8,3778.6v165.7c0,53.8-73.4,97.4-164,97.4H223.3c-90.6,0-164-43.6-164-97.4v-165.7
		c0-53.8,73.4-97.4,164-97.4h206.5C520.4,3681.2,593.8,3724.8,593.8,3778.6z"/>
	<path class="st1" d="M595.8,3257v165.7c0,53.8-73.4,97.4-164,97.4H225.3c-90.6,0-164-43.6-164-97.4V3257c0-53.8,73.4-97.4,164-97.4
		h206.5C522.4,3159.6,595.8,3203.2,595.8,3257z"/>
	<path class="st1" d="M594.8,4318.6v165.7c0,53.8-73.4,97.4-164,97.4H224.3c-90.6,0-164-43.6-164-97.4v-165.7
		c0-53.8,73.4-97.4,164-97.4h206.5C521.4,4221.2,594.8,4264.8,594.8,4318.6z"/>
	<path class="st1" d="M595.8,5397.4v165.7c0,53.8-73.4,97.4-164,97.4H225.3c-90.6,0-164-43.6-164-97.4v-165.7
		c0-53.8,73.4-97.4,164-97.4h206.5C522.4,5300,595.8,5343.6,595.8,5397.4z"/>
	<path class="st1" d="M598.8,4863.9v165.7c0,53.8-73.4,97.4-164,97.4H228.3c-90.6,0-164-43.6-164-97.4v-165.7
		c0-53.8,73.4-97.4,164-97.4h206.5C525.4,4766.5,598.8,4810.2,598.8,4863.9z"/>
	<path class="st1" d="M594.8,6474.4v165.7c0,53.8-73.4,97.4-164,97.4H224.3c-90.6,0-164-43.6-164-97.4v-165.7
		c0-53.8,73.4-97.4,164-97.4h206.5C521.4,6377,594.8,6420.6,594.8,6474.4z"/>
	<path class="st1" d="M598.8,7023.9v165.7c0,53.8-73.4,97.4-164,97.4H228.3c-90.6,0-164-43.6-164-97.4v-165.7
		c0-53.8,73.4-97.4,164-97.4h206.5C525.4,6926.5,598.8,6970.1,598.8,7023.9z"/>
	<path class="st1" d="M599.8,7537.8v165.7c0,53.8-73.4,97.4-164,97.4H229.3c-90.6,0-164-43.6-164-97.4v-165.7
		c0-53.8,73.4-97.4,164-97.4h206.5C526.4,7440.3,599.8,7484,599.8,7537.8z"/>
	<path class="st1" d="M600.8,8098v165.7c0,53.8-73.4,97.4-164,97.4H230.3c-90.6,0-164-43.6-164-97.4V8098c0-53.8,73.4-97.4,164-97.4
		h206.5C527.4,8000.5,600.8,8044.2,600.8,8098z"/>
	<path class="st1" d="M597.8,5934.4v165.7c0,53.8-73.4,97.4-164,97.4H227.3c-90.6,0-164-43.6-164-97.4v-165.7
		c0-53.8,73.4-97.4,164-97.4h206.5C524.4,5837,597.8,5880.6,597.8,5934.4z"/>
</g>
</svg>
