<?xml version="1.0" encoding="utf-8"?>
<!-- Generator: Adobe Illustrator 25.0.1, SVG Export Plug-In . SVG Version: 6.00 Build 0)  -->
<svg version="1.1" id="Layer_1" xmlns="http://www.w3.org/2000/svg" xmlns:xlink="http://www.w3.org/1999/xlink" x="0px" y="0px"
	 viewBox="0 0 432 406" style="enable-background:new 0 0 432 406;" xml:space="preserve">
<style type="text/css">
	.st0{fill:#333333;}
</style>
<path class="st0" d="M46.6,182.4L46.6,182.4c-12.2,0-22.2-10-22.2-22.2v-37.5c0-12.2,10-22.2,22.2-22.2h0c12.2,0,22.2,10,22.2,22.2
	v37.5C68.8,172.4,58.8,182.4,46.6,182.4z"/>
<path class="st0" d="M131.1,243.8L131.1,243.8c-12.2,0-22.2-10-22.2-22.2v-37.5c0-12.2,10-22.2,22.2-22.2h0
	c12.2,0,22.2,10,22.2,22.2v37.5C153.4,233.8,143.3,243.8,131.1,243.8z"/>
<path class="st0" d="M215.7,182.4L215.7,182.4c-12.2,0-22.2-10-22.2-22.2v-37.5c0-12.2,10-22.2,22.2-22.2h0
	c12.2,0,22.2,10,22.2,22.2v37.5C237.9,172.4,227.9,182.4,215.7,182.4z"/>
<path class="st0" d="M300.2,243.8L300.2,243.8c-12.2,0-22.2-10-22.2-22.2v-37.5c0-12.2,10-22.2,22.2-22.2h0
	c12.2,0,22.2,10,22.2,22.2v37.5C322.5,233.8,312.4,243.8,300.2,243.8z"/>
<path class="st0" d="M384.8,182.4L384.8,182.4c-12.2,0-22.2-10-22.2-22.2v-37.5c0-12.2,10-22.2,22.2-22.2h0
	c12.2,0,22.2,10,22.2,22.2v37.5C407,172.4,397,182.4,384.8,182.4z"/>
<path class="st0" d="M46.6,305.6L46.6,305.6c-12.2,0-22.2-10-22.2-22.2v-37.5c0-12.2,10-22.2,22.2-22.2h0c12.2,0,22.2,10,22.2,22.2
	v37.5C68.8,295.6,58.8,305.6,46.6,305.6z"/>
<path class="st0" d="M131.1,367L131.1,367c-12.2,0-22.2-10-22.2-22.2v-37.5c0-12.2,10-22.2,22.2-22.2h0c12.2,0,22.2,10,22.2,22.2
	v37.5C153.4,357,143.3,367,131.1,367z"/>
<path class="st0" d="M215.7,305.6L215.7,305.6c-12.2,0-22.2-10-22.2-22.2v-37.5c0-12.2,10-22.2,22.2-22.2h0
	c12.2,0,22.2,10,22.2,22.2v37.5C237.9,295.6,227.9,305.6,215.7,305.6z"/>
<path class="st0" d="M300.2,367L300.2,367c-12.2,0-22.2-10-22.2-22.2v-37.5c0-12.2,10-22.2,22.2-22.2h0c12.2,0,22.2,10,22.2,22.2
	v37.5C322.5,357,312.4,367,300.2,367z"/>
<path class="st0" d="M131.1,120.9L131.1,120.9c-12.2,0-22.2-10-22.2-22.2V61.2c0-12.2,10-22.2,22.2-22.2h0c12.2,0,22.2,10,22.2,22.2
	v37.5C153.4,110.9,143.3,120.9,131.1,120.9z"/>
<path class="st0" d="M300.2,120.9L300.2,120.9c-12.2,0-22.2-10-22.2-22.2V61.2C278,49,288,39,300.2,39h0c12.2,0,22.2,10,22.2,22.2
	v37.5C322.5,110.9,312.4,120.9,300.2,120.9z"/>
<path class="st0" d="M384.8,305.6L384.8,305.6c-12.2,0-22.2-10-22.2-22.2v-37.5c0-12.2,10-22.2,22.2-22.2h0
	c12.2,0,22.2,10,22.2,22.2v37.5C407,295.6,397,305.6,384.8,305.6z"/>
</svg>
