<?xml version="1.0" encoding="utf-8"?>
<!-- Generator: Adobe Illustrator 25.0.1, SVG Export Plug-In . SVG Version: 6.00 Build 0)  -->
<svg version="1.1" id="Layer_1" xmlns="http://www.w3.org/2000/svg" xmlns:xlink="http://www.w3.org/1999/xlink" x="0px" y="0px"
	 viewBox="0 0 540 540" style="enable-background:new 0 0 540 540;" xml:space="preserve">
<style type="text/css">
	.st0{fill:#507282;}
</style>
<g>
	<path class="st0" d="M184.9,25.6c-12.6-0.9-24.5,5.5-34.8,12.7c-44.8,31.4-73.5,83.6-79.3,138s10.7,110.3,42.4,154.8
		c9.9,13.9,21.4,27,28.6,42.6c13.9,30.2,10.2,66.8,27.1,95.4C189.1,503,234.2,515.5,273,508s72.3-30.9,103.3-55.5
		c17.8-14.1,36.2-30.2,42.1-52.2c4.6-17.1,0.9-35.3-4.9-52.1c-4.8-13.8-11.1-27.3-21.1-38c-10.6-11.3-24.8-18.7-36-29.3
		c-12.8-12.2-21.6-28.6-24.5-46.1c-4.1-24.3,2.9-48.9,6.7-73.2s3.7-51.6-11.8-70.7c-6.8-8.4-16-14.5-25.1-20.3
		c-11.1-7.1-22.4-14.2-33.7-21.1C242.9,34.4,214.3,26,184.9,25.6L184.9,25.6z"/>
</g>
</svg>
