<?xml version="1.0" encoding="utf-8"?>
<!-- Generator: Adobe Illustrator 25.0.1, SVG Export Plug-In . SVG Version: 6.00 Build 0)  -->
<svg version="1.1" id="Layer_1" xmlns="http://www.w3.org/2000/svg" xmlns:xlink="http://www.w3.org/1999/xlink" x="0px" y="0px"
	 viewBox="0 0 1080 1080" style="enable-background:new 0 0 1080 1080;" xml:space="preserve">
<style type="text/css">
	.st0{fill:url(#SVGID_1_);}
	.st1{fill:#FFFFFF;}
	.st2{fill:none;stroke:#FFFFFF;stroke-width:60;stroke-linecap:round;stroke-linejoin:round;stroke-miterlimit:10;}
</style>
<linearGradient id="SVGID_1_" gradientUnits="userSpaceOnUse" x1="539.8" y1="1041.5" x2="539.8" y2="41.5" gradientTransform="matrix(1 0 0 -1 0 1082)">
	<stop  offset="0" style="stop-color:#00004D"/>
	<stop  offset="0.1641" style="stop-color:#15055F"/>
	<stop  offset="0.5026" style="stop-color:#4A138F"/>
	<stop  offset="0.9828" style="stop-color:#A028DA"/>
	<stop  offset="1" style="stop-color:#A329DD"/>
</linearGradient>
<circle class="st0" cx="539.8" cy="540.5" r="500"/>
<g>
	<path class="st1" d="M601.9,602.6c-79,79-190.1,106-291.1,81.1c-21.8-5.4-37.8,20-23.4,37.2c6,7.2,12.4,14.3,19.2,21.1
		c120,120,314.7,120,434.7,0s120-314.7,0-434.7c-6.8-6.8-13.8-13.2-21.1-19.2c-17.2-14.3-42.6,1.7-37.2,23.4
		C707.9,412.5,680.9,523.7,601.9,602.6z"/>
	<path class="st2" d="M288.3,513h204.1c11,0,19.9-8.9,19.9-19.9V289"/>
</g>
</svg>
