<?xml version="1.0" encoding="utf-8"?>
<!-- Generator: Adobe Illustrator 25.0.1, SVG Export Plug-In . SVG Version: 6.00 Build 0)  -->
<svg version="1.1" id="Layer_1" xmlns="http://www.w3.org/2000/svg" xmlns:xlink="http://www.w3.org/1999/xlink" x="0px" y="0px"
	 viewBox="0 0 1080 1080" style="enable-background:new 0 0 1080 1080;" xml:space="preserve">
<style type="text/css">
	.st0{fill:url(#SVGID_1_);}
	.st1{fill:#FFFFFF;}
</style>
<linearGradient id="SVGID_1_" gradientUnits="userSpaceOnUse" x1="512.1532" y1="228.0386" x2="512.1532" y2="837.0381">
	<stop  offset="0" style="stop-color:#00004D"/>
	<stop  offset="0.1641" style="stop-color:#15055F"/>
	<stop  offset="0.5026" style="stop-color:#4A138F"/>
	<stop  offset="0.9828" style="stop-color:#A028DA"/>
	<stop  offset="1" style="stop-color:#A329DD"/>
</linearGradient>
<rect x="207.7" y="228" class="st0" width="609" height="609"/>
<g>
	<path class="st1" d="M444.6,637.3c84.9-55.7,112.2-95.2,135.7-192.4c-46-16.2-103.2,5.6-131.7,40.5c-17,20.8-25.2,50.7-23,84.2
		C427.2,593.4,433.9,617,444.6,637.3z"/>
	<path class="st1" d="M655.3,346.9c-3.5,35.4-7.5,72.5-12.6,95c-13.5,59.9-28.8,108.6-59.8,151.6c-27.4,37.9-65.6,70.1-132,111
		c-23.1,14.2-57.5,23.8-90.1,30c46.6,29.3,101.3,44.5,157.1,42.5c71.5-2.6,136.2-32.3,177.5-81.7c37.7-45.1,54.9-104.1,48.4-166.3
		C737.1,464.1,705.5,400,655.3,346.9z"/>
	<path class="st1" d="M539.8,40.5c-276.1,0-500,223.9-500,500s223.9,500,500,500s500-223.9,500-500S815.9,40.5,539.8,40.5z
		 M741.4,733.6c-52.2,62.4-132.9,100-221.4,103.2c-3.9,0.1-7.8,0.2-11.7,0.2c-41.5,0-83.5-7.8-122.1-22.8
		c-45.5-17.7-86-44.7-120.3-80.2L220,686.5l66-3.2c32.3-1.6,74.9-8.4,105.5-18.1c-14.6-27.8-23.7-59.7-25.8-91.6
		c-3.2-48.6,9.8-93.4,36.4-126c25.5-31.2,63.9-54.3,105.3-63.5c28.9-6.4,57.4-5.8,83.3,1.4c2.3-19.2,4.4-40.5,6.3-59.4
		c1.6-16.6,3.2-32.3,4.7-44.9L608,228l42,33.1c44.4,34.9,80.4,75.9,106.9,121.9c25.8,44.7,41.5,91.7,46.5,139.6
		C811.6,601.1,789.6,676,741.4,733.6z"/>
</g>
<g id="Layer_2_1_">
</g>
</svg>
